<svg version="1.1" viewBox="0.0 0.0 310.0 182.0" fill="none" stroke="none" stroke-linecap="square" stroke-miterlimit="10" preserveAspectRatio="none" width="310" height="182" xmlns:xlink="http://www.w3.org/1999/xlink" xmlns="http://www.w3.org/2000/svg"><clipPath id="id_0"><path d="M0 0L310.0 0L310.0 182.0L0 182.0L0 0Z" clip-rule="nonzero"/></clipPath><path fill="#000000" fill-opacity="0.0" clip-path="url(#id_0)" d="M-154.10435 -123.539L894.1931 -123.539L894.1931 663.10364L-154.10435 663.10364Z" fill-rule="evenodd"/><path fill="#ffffff" clip-path="url(#id_0)" d="M212.55328 102.14664L212.55328 102.14664C212.55328 93.42684 234.16376 86.358055 260.82166 86.358055C287.47952 86.358055 309.09003 93.42684 309.09003 102.14664L309.09003 165.30095C309.09003 174.02075 287.47952 181.08954 260.82166 181.08954C234.16376 181.08954 212.55328 174.02075 212.55328 165.30095Z" fill-rule="evenodd"/><path fill="#000000" fill-opacity="0.0" clip-path="url(#id_0)" d="M309.09003 102.14664L309.09003 102.14664C309.09003 110.86643 287.47952 117.93522 260.82166 117.93522C234.16376 117.93522 212.55328 110.86643 212.55328 102.14664" fill-rule="evenodd"/><path fill="#000000" fill-opacity="0.0" clip-path="url(#id_0)" d="M212.55328 102.14664L212.55328 102.14664C212.55328 93.42684 234.16376 86.358055 260.82166 86.358055C287.47952 86.358055 309.09003 93.42684 309.09003 102.14664L309.09003 165.30095C309.09003 174.02075 287.47952 181.08954 260.82166 181.08954C234.16376 181.08954 212.55328 174.02075 212.55328 165.30095Z" fill-rule="evenodd"/><path stroke="#000000" stroke-width="1.8204463523022936" stroke-linejoin="round" stroke-linecap="butt" clip-path="url(#id_0)" d="M309.09003 102.14664L309.09003 102.14664C309.09003 110.86643 287.47952 117.93522 260.82166 117.93522C234.16376 117.93522 212.55328 110.86643 212.55328 102.14664" fill-rule="evenodd"/><path stroke="#000000" stroke-width="1.8204463523022936" stroke-linejoin="round" stroke-linecap="butt" clip-path="url(#id_0)" d="M212.55328 102.14664L212.55328 102.14664C212.55328 93.42684 234.16376 86.358055 260.82166 86.358055C287.47952 86.358055 309.09003 93.42684 309.09003 102.14664L309.09003 165.30095C309.09003 174.02075 287.47952 181.08954 260.82166 181.08954C234.16376 181.08954 212.55328 174.02075 212.55328 165.30095Z" fill-rule="evenodd"/><clipPath id="id_1"><path d="M0 1.4210855E-14L310.0 1.4210855E-14L310.0 182.0L0 182.0L0 1.4210855E-14Z" clip-rule="nonzero"/></clipPath><path fill="#000000" clip-path="url(#id_1)" d="M248.88112 135.75525L250.48781 135.75525L250.48781 142.78291Q250.48781 144.61807 250.07547 145.69925Q249.66313 146.78043 248.58253 147.46327Q247.50194 148.1319 245.73885 148.1319Q244.03264 148.1319 242.9378 147.54863Q241.85721 146.95114 241.388 145.8415Q240.93301 144.71765 240.93301 142.78291L240.93301 135.75525L242.53969 135.75525L242.53969 142.78291Q242.53969 144.362 242.82407 145.11598Q243.12265 145.85573 243.83357 146.2683Q244.55872 146.68085 245.59666 146.68085Q247.37396 146.68085 248.12755 145.86996Q248.88112 145.05908 248.88112 142.78291L248.88112 135.75525ZM253.19313 147.9185L253.19313 135.75525L258.5819 135.75525Q260.20282 135.75525 261.04172 136.08244Q261.8948 136.40965 262.39246 137.24898Q262.90433 138.0741 262.90433 139.08414Q262.90433 140.36449 262.06543 141.26073Q261.22656 142.14275 259.4777 142.38458Q260.11752 142.69756 260.45874 142.9963Q261.15546 143.63647 261.78107 144.60384L263.89963 147.9185L261.88058 147.9185L260.27393 145.38628Q259.563 144.29086 259.108 143.72183Q258.653 143.13857 258.28333 142.91095Q257.92786 142.6691 257.5582 142.58374Q257.28802 142.51262 256.6624 142.51262L254.7998 142.51262L254.7998 147.9185L253.19313 147.9185ZM254.7998 141.13269L258.25488 141.13269Q259.36392 141.13269 259.9753 140.90508Q260.60095 140.66324 260.92795 140.16531Q261.25497 139.6674 261.25497 139.08414Q261.25497 138.21635 260.62936 137.66154Q260.00375 137.10672 258.6388 137.10672L254.7998 137.10672L254.7998 141.13269ZM265.35373 147.9185L265.35373 135.75525L266.9746 135.75525L266.9746 146.48167L272.94638 146.48167L272.94638 147.9185L265.35373 147.9185ZM274.0845 145.2867L275.5632 145.05908Q275.67697 145.94109 276.2457 146.42477Q276.81445 146.89423 277.83817 146.89423Q278.8619 146.89423 279.35953 146.48167Q279.85718 146.0549 279.85718 145.48586Q279.85718 144.98795 279.4164 144.6892Q279.11783 144.49004 277.89505 144.19128Q276.2457 143.76451 275.60587 143.46576Q274.98026 143.167 274.65323 142.64066Q274.3262 142.10007 274.3262 141.44566Q274.3262 140.8624 274.59637 140.36449Q274.86652 139.85234 275.33572 139.52515Q275.67697 139.26907 276.27414 139.09837Q276.88553 138.91344 277.56802 138.91344Q278.60596 138.91344 279.38797 139.21217Q280.16998 139.51093 280.53967 140.02306Q280.92355 140.5352 281.06577 141.38876L279.60126 141.58792Q279.5017 140.90508 279.0183 140.52097Q278.5491 140.13687 277.68176 140.13687Q276.64383 140.13687 276.20303 140.47829Q275.7765 140.81972 275.7765 141.27495Q275.7765 141.55948 275.9471 141.80132Q276.13196 142.04315 276.53006 142.19965Q276.74335 142.285 277.83817 142.58374Q279.43063 142.9963 280.05624 143.2666Q280.68185 143.5369 281.03732 144.04903Q281.3928 144.56116 281.3928 145.32938Q281.3928 146.08334 280.952 146.73775Q280.52545 147.39215 279.70078 147.76202Q278.8761 148.11768 277.83817 148.11768Q276.13196 148.11768 275.222 147.40637Q274.3262 146.69507 274.0845 145.2867Z" fill-rule="nonzero"/><path fill="#ffffff" clip-path="url(#id_0)" d="M0.9099804 91.92839L143.87006 91.92839L143.87006 175.5192L0.9099804 175.5192Z" fill-rule="evenodd"/><path stroke="#000000" stroke-width="1.8204463523022936" stroke-linejoin="round" stroke-linecap="butt" clip-path="url(#id_0)" d="M0.9099804 91.92839L143.87006 91.92839L143.87006 175.5192L0.9099804 175.5192Z" fill-rule="evenodd"/><clipPath id="id_2"><path d="M-1.110223E-16 0L310.0 0L310.0 182.0L-1.110223E-16 182.0L-1.110223E-16 0Z" clip-rule="nonzero"/></clipPath><path fill="#000000" clip-path="url(#id_2)" d="M52.96697 125.24337L52.96697 123.80654L58.114044 123.80654L58.114044 128.3162Q56.933914 129.26933 55.668472 129.75302Q54.417248 130.22249 53.080715 130.22249Q51.289192 130.22249 49.82469 129.45427Q48.36019 128.68607 47.620834 127.235016Q46.881474 125.78396 46.881474 123.99148Q46.881474 122.21323 47.620834 120.67681Q48.36019 119.1404 49.7536 118.40065Q51.147007 117.64667 52.95275 117.64667Q54.275066 117.64667 55.34145 118.07345Q56.407833 118.50023 57.005005 119.26844Q57.616398 120.022415 57.929203 121.24586L56.478924 121.64419Q56.208775 120.71949 55.796436 120.19313Q55.398323 119.65254 54.644745 119.33957Q53.891167 119.026596 52.96697 119.026596Q51.872147 119.026596 51.061695 119.36802Q50.251244 119.69522 49.7536 120.25003Q49.270172 120.79063 49.000023 121.44502Q48.53081 122.56888 48.53081 123.8919Q48.53081 125.513664 49.08533 126.60907Q49.65407 127.704475 50.720455 128.24506Q51.78684 128.77142 52.995403 128.77142Q54.03335 128.77142 55.02864 128.3731Q56.023933 127.96054 56.535797 127.50531L56.535797 125.24337L52.96697 125.24337ZM60.299866 119.567184L60.299866 117.84583L61.792805 117.84583L61.792805 119.567184L60.299866 119.567184ZM60.299866 130.0091L60.299866 121.20318L61.792805 121.20318L61.792805 130.0091L60.299866 130.0091ZM67.3276 128.67184L67.54087 129.99486Q66.91526 130.1229 66.41762 130.1229Q65.60716 130.1229 65.152176 129.86684Q64.7114 129.61076 64.526566 129.19821Q64.34172 128.77142 64.34172 127.43418L64.34172 122.355484L63.246902 122.355484L63.246902 121.20318L64.34172 121.20318L64.34172 119.026596L65.82044 118.130356L65.82044 121.20318L67.3276 121.20318L67.3276 122.355484L65.82044 122.355484L65.82044 127.51954Q65.82044 128.14548 65.89153 128.33041Q65.976845 128.51535 66.14747 128.62917Q66.332306 128.72874 66.673546 128.72874Q66.91526 128.72874 67.3276 128.67184ZM69.02999 130.0091L69.02999 117.84583L70.63667 117.84583L70.63667 122.83917L76.94966 122.83917L76.94966 117.84583L78.55635 117.84583L78.55635 130.0091L76.94966 130.0091L76.94966 124.276L70.63667 124.276L70.63667 130.0091L69.02999 130.0091ZM86.80686 130.0091L86.80686 128.71452Q85.783134 130.20825 84.02005 130.20825Q83.23804 130.20825 82.55555 129.90952Q81.88728 129.61076 81.56026 129.15553Q81.23324 128.7003 81.10527 128.0459Q81.00574 127.61912 81.00574 126.65175L81.00574 121.20318L82.49868 121.20318L82.49868 126.08271Q82.49868 127.249245 82.598206 127.6618Q82.74039 128.24506 83.19538 128.58649Q83.65037 128.92792 84.318634 128.92792Q84.98691 128.92792 85.56986 128.58649Q86.16704 128.23083 86.408745 127.64757Q86.65046 127.05008 86.65046 125.92622L86.65046 121.20318L88.1434 121.20318L88.1434 130.0091L86.80686 130.0091ZM91.855064 130.0091L90.475876 130.0091L90.475876 117.84583L91.96881 117.84583L91.96881 122.18478Q92.92145 121.00401 94.38595 121.00401Q95.1964 121.00401 95.92154 121.331215Q96.64668 121.65841 97.11589 122.255905Q97.5851 122.83917 97.841034 123.678505Q98.11118 124.517845 98.11118 125.470985Q98.11118 127.732925 96.98792 128.9706Q95.87888 130.20825 94.30064 130.20825Q92.750824 130.20825 91.855064 128.89946L91.855064 130.0091ZM91.84084 125.542114Q91.84084 127.12121 92.28162 127.83251Q92.978325 128.98482 94.18689 128.98482Q95.16796 128.98482 95.87888 128.13126Q96.589806 127.277695 96.589806 125.59902Q96.589806 123.87767 95.907326 123.05256Q95.22484 122.227455 94.24377 122.227455Q93.27691 122.227455 92.551765 123.08102Q91.84084 123.93458 91.84084 125.542114Z" fill-rule="nonzero"/><path fill="#000000" clip-path="url(#id_2)" d="M25.597921 150.03934L25.597921 137.87608L34.38492 137.87608L34.38492 139.31291L27.218822 139.31291L27.218822 143.04013L33.929928 143.04013L33.929928 144.46274L27.218822 144.46274L27.218822 148.60251L34.66929 148.60251L34.66929 150.03934L25.597921 150.03934ZM36.708054 150.03934L36.708054 141.23343L38.044586 141.23343L38.044586 142.48532Q39.01144 141.03427 40.84562 141.03427Q41.641853 141.03427 42.31012 141.31879Q42.978386 141.6033 43.30541 142.07277Q43.646652 142.528 43.77462 143.16817Q43.85993 143.58072 43.85993 144.61923L43.85993 150.03934L42.366993 150.03934L42.366993 144.67613Q42.366993 143.76566 42.18215 143.32466Q42.01153 142.86943 41.57076 142.59912Q41.12999 142.32883 40.532814 142.32883Q39.580177 142.32883 38.883472 142.94055Q38.20099 143.53804 38.20099 145.23094L38.20099 150.03934L36.708054 150.03934ZM51.908222 150.03934L51.908222 148.74478Q50.884495 150.23851 49.121407 150.23851Q48.339394 150.23851 47.656906 149.93976Q46.98864 149.641 46.661617 149.18578Q46.33459 148.73055 46.206627 148.07616Q46.107098 147.64937 46.107098 146.682L46.107098 141.23343L47.600033 141.23343L47.600033 146.11296Q47.600033 147.2795 47.699562 147.69205Q47.841747 148.27531 48.296738 148.61674Q48.751728 148.95816 49.419994 148.95816Q50.08826 148.95816 50.671215 148.61674Q51.26839 148.2611 51.510105 147.67783Q51.75182 147.08032 51.75182 145.95647L51.75182 141.23343L53.244755 141.23343L53.244755 150.03934L51.908222 150.03934ZM55.59145 150.03934L55.59145 141.23343L56.927986 141.23343L56.927986 142.4711Q57.34032 141.8167 58.022804 141.43259Q58.71951 141.03427 59.586834 141.03427Q60.567905 141.03427 61.19352 141.44682Q61.81913 141.84515 62.07506 142.57068Q63.127228 141.03427 64.79079 141.03427Q66.1131 141.03427 66.80981 141.7598Q67.52073 142.48532 67.52073 143.99329L67.52073 150.03934L66.02779 150.03934L66.02779 144.4912Q66.02779 143.59496 65.885605 143.21085Q65.74342 142.81252 65.35952 142.57068Q64.975624 142.32883 64.46376 142.32883Q63.539562 142.32883 62.92817 142.95477Q62.316776 143.5665 62.316776 144.91797L62.316776 150.03934L60.823837 150.03934L60.823837 144.32048Q60.823837 143.32466 60.45416 142.82675Q60.08448 142.32883 59.25981 142.32883Q58.634197 142.32883 58.0939 142.65604Q57.553596 142.98323 57.311882 143.6234Q57.08439 144.26358 57.08439 145.4728L57.08439 150.03934L55.59145 150.03934ZM75.761894 147.20836L77.297485 147.3933Q76.92781 148.74478 75.94674 149.49875Q74.96567 150.23851 73.43007 150.23851Q71.49636 150.23851 70.35889 149.05774Q69.235634 147.86276 69.235634 145.71463Q69.235634 143.48114 70.37311 142.2577Q71.5248 141.03427 73.344765 141.03427Q75.10785 141.03427 76.21689 142.24348Q77.34014 143.43846 77.34014 145.61505Q77.34014 145.75731 77.34014 146.01338L70.771225 146.01338Q70.85654 147.46443 71.595894 148.24686Q72.33525 149.01508 73.43007 149.01508Q74.254745 149.01508 74.8377 148.58829Q75.420654 148.14728 75.761894 147.20836ZM70.85654 144.78993L75.776115 144.78993Q75.67659 143.68031 75.207375 143.12549Q74.49645 142.2577 73.35898 142.2577Q72.33525 142.2577 71.62433 142.95477Q70.92763 143.63763 70.85654 144.78993ZM79.16076 150.03934L79.16076 141.23343L80.49729 141.23343L80.49729 142.57068Q81.009155 141.63176 81.43571 141.33301Q81.87648 141.03427 82.402565 141.03427Q83.15614 141.03427 83.938156 141.51794L83.42629 142.89787Q82.87177 142.57068 82.331474 142.57068Q81.833824 142.57068 81.44993 142.86943Q81.06603 143.16817 80.89541 143.68031Q80.63947 144.47696 80.63947 145.43011L80.63947 150.03934L79.16076 150.03934ZM90.57264 148.95816Q89.73376 149.65524 88.96596 149.95398Q88.21238 150.23851 87.33083 150.23851Q85.880554 150.23851 85.09854 149.5272Q84.31653 148.8159 84.31653 147.7205Q84.31653 147.0661 84.61511 146.53973Q84.913704 145.99915 85.38291 145.68617Q85.86634 145.35898 86.46351 145.18826Q86.89007 145.07446 87.78583 144.96065Q89.59157 144.74725 90.44468 144.44852Q90.45889 144.13554 90.45889 144.0644Q90.45889 143.15395 90.03234 142.76984Q89.4636 142.27193 88.326126 142.27193Q87.273964 142.27193 86.77631 142.6418Q86.27867 143.01169 86.03696 143.93637L84.57246 143.73721Q84.771515 142.81252 85.22651 142.24348Q85.681496 141.66022 86.54882 141.34724Q87.416145 141.03427 88.539406 141.03427Q89.67688 141.03427 90.37358 141.30457Q91.0845 141.56062 91.41153 141.97319Q91.75277 142.3715 91.88074 142.98323Q91.95183 143.36734 91.95183 144.36316L91.95183 146.3548Q91.95183 148.43181 92.05136 148.98662Q92.15089 149.5272 92.42104 150.03934L90.87123 150.03934Q90.62952 149.56989 90.57264 148.95816ZM90.44468 145.61505Q89.634224 145.95647 88.01332 146.18408Q87.08913 146.31212 86.70522 146.48283Q86.32133 146.65355 86.10805 146.96652Q85.90899 147.2795 85.90899 147.67783Q85.90899 148.27531 86.36398 148.67365Q86.81897 149.07198 87.686295 149.07198Q88.539406 149.07198 89.20767 148.7021Q89.89016 148.318 90.202965 147.66359Q90.44468 147.15146 90.44468 146.16986L90.44468 145.61505ZM97.526115 148.7021L97.73939 150.02512Q97.11378 150.15315 96.616135 150.15315Q95.80568 150.15315 95.35069 149.89708Q94.90992 149.641 94.72508 149.22845Q94.54024 148.80168 94.54024 147.46443L94.54024 142.38574L93.44542 142.38574L93.44542 141.23343L94.54024 141.23343L94.54024 139.05685L96.01896 138.16061L96.01896 141.23343L97.526115 141.23343L97.526115 142.38574L96.01896 142.38574L96.01896 147.54979Q96.01896 148.17574 96.09005 148.36067Q96.17536 148.54561 96.345985 148.65942Q96.53082 148.759 96.87206 148.759Q97.11378 148.759 97.526115 148.7021ZM98.98679 139.59744L98.98679 137.87608L100.47973 137.87608L100.47973 139.59744L98.98679 139.59744ZM98.98679 150.03934L98.98679 141.23343L100.47973 141.23343L100.47973 150.03934L98.98679 150.03934ZM102.20398 145.62927Q102.20398 143.18239 103.55473 142.01585Q104.69221 141.03427 106.32733 141.03427Q108.14729 141.03427 109.29899 142.22925Q110.45068 143.41002 110.45068 145.51547Q110.45068 147.20836 109.93881 148.18996Q109.42695 149.15733 108.44588 149.69792Q107.47903 150.23851 106.32733 150.23851Q104.478935 150.23851 103.34146 149.05774Q102.20398 147.86276 102.20398 145.62927ZM103.73957 145.62927Q103.73957 147.32217 104.464714 148.17574Q105.20407 149.01508 106.32733 149.01508Q107.43637 149.01508 108.17573 148.17574Q108.915085 147.32217 108.915085 145.5866Q108.915085 143.9506 108.17573 143.11127Q107.43637 142.27193 106.32733 142.27193Q105.20407 142.27193 104.464714 143.11127Q103.73957 143.93637 103.73957 145.62927ZM112.2002 150.03934L112.2002 141.23343L113.536736 141.23343L113.536736 142.48532Q114.503586 141.03427 116.33777 141.03427Q117.134 141.03427 117.80227 141.31879Q118.470535 141.6033 118.79756 142.07277Q119.1388 142.528 119.26677 143.16817Q119.35208 143.58072 119.35208 144.61923L119.35208 150.03934L117.85914 150.03934L117.85914 144.67613Q117.85914 143.76566 117.6743 143.32466Q117.50368 142.86943 117.06291 142.59912Q116.62214 142.32883 116.02496 142.32883Q115.07233 142.32883 114.375626 142.94055Q113.69314 143.53804 113.69314 145.23094L113.69314 150.03934L112.2002 150.03934Z" fill-rule="nonzero"/><path fill="#ffffff" clip-path="url(#id_0)" d="M25.485363 0.9128557L119.29372 0.9128557L119.29372 0.9128557C131.58287 0.9128557 141.54518 10.892781 141.54518 23.203644C141.54518 35.514507 131.58287 45.49443 119.29372 45.49443L25.485363 45.49443L25.485363 45.49443C13.196216 45.49443 3.2338936 35.514507 3.2338936 23.203644C3.2338936 10.892781 13.196216 0.9128557 25.485363 0.9128557Z" fill-rule="evenodd"/><path stroke="#000000" stroke-width="1.8204463523022936" stroke-linejoin="round" stroke-linecap="butt" clip-path="url(#id_0)" d="M25.485363 0.9128557L119.29372 0.9128557L119.29372 0.9128557C131.58287 0.9128557 141.54518 10.892781 141.54518 23.203644C141.54518 35.514507 131.58287 45.49443 119.29372 45.49443L25.485363 45.49443L25.485363 45.49443C13.196216 45.49443 3.2338936 35.514507 3.2338936 23.203644C3.2338936 10.892781 13.196216 0.9128557 25.485363 0.9128557Z" fill-rule="evenodd"/><clipPath id="id_3"><path d="M0 8.881784E-16L310.0 8.881784E-16L310.0 182.0L0 182.0L0 8.881784E-16Z" clip-rule="nonzero"/></clipPath><path fill="#000000" clip-path="url(#id_3)" d="M37.5539 25.236258L39.160583 25.648813Q38.64872 27.62623 37.340622 28.678957Q36.032528 29.717457 34.127254 29.717457Q32.165108 29.717457 30.928104 28.9208Q29.705318 28.109917 29.05127 26.601957Q28.41144 25.079771 28.41144 23.32997Q28.41144 21.437908 29.136581 20.02953Q29.861721 18.606928 31.198256 17.8814Q32.549007 17.141645 34.155693 17.141645Q35.97565 17.141645 37.212658 18.066338Q38.46388 18.99103 38.947308 20.683928L37.36906 21.053804Q36.94251 19.730783 36.132057 19.133291Q35.335823 18.521572 34.127254 18.521572Q32.719627 18.521572 31.781212 19.190195Q30.842794 19.858818 30.458897 20.9969Q30.074999 22.120756 30.074999 23.32997Q30.074999 24.880608 30.52999 26.032915Q30.98498 27.185225 31.937614 27.768492Q32.89025 28.337532 33.99929 28.337532Q35.35004 28.337532 36.28846 27.555101Q37.226875 26.772669 37.5539 25.236258ZM40.941708 29.504066L40.941708 20.698154L42.27824 20.698154L42.27824 22.0354Q42.790108 21.096483 43.21666 20.797735Q43.657433 20.49899 44.183514 20.49899Q44.93709 20.49899 45.719105 20.982674L45.20724 22.3626Q44.65272 22.0354 44.112423 22.0354Q43.614777 22.0354 43.230877 22.334148Q42.84698 22.632895 42.676357 23.145031Q42.420425 23.941689 42.420425 24.894833L42.420425 29.504066L40.941708 29.504066ZM46.05482 25.093998Q46.05482 22.64712 47.405575 21.480585Q48.54305 20.49899 50.17817 20.49899Q51.99813 20.49899 53.149826 21.693975Q54.301517 22.874737 54.301517 24.980188Q54.301517 26.673086 53.789654 27.654682Q53.27779 28.622053 52.29672 29.162642Q51.329865 29.703232 50.17817 29.703232Q48.329773 29.703232 47.1923 28.52247Q46.05482 27.327484 46.05482 25.093998ZM47.590412 25.093998Q47.590412 26.786896 48.315556 27.640457Q49.054913 28.479794 50.17817 28.479794Q51.28721 28.479794 52.02657 27.640457Q52.765926 26.786896 52.765926 25.05132Q52.765926 23.415325 52.02657 22.57599Q51.28721 21.736654 50.17817 21.736654Q49.054913 21.736654 48.315556 22.57599Q47.590412 23.4011 47.590412 25.093998ZM56.05104 29.504066L56.05104 20.698154L57.387573 20.698154L57.387573 21.950045Q58.354427 20.49899 60.188606 20.49899Q60.98484 20.49899 61.653107 20.78351Q62.321373 21.068031 62.6484 21.537489Q62.989643 21.992723 63.117607 22.632895Q63.20292 23.045448 63.20292 24.08395L63.20292 29.504066L61.70998 29.504066L61.70998 24.140854Q61.70998 23.230387 61.525143 22.789381Q61.35452 22.334148 60.91375 22.063852Q60.472977 21.793558 59.8758 21.793558Q58.92317 21.793558 58.226463 22.405277Q57.543976 23.002771 57.543976 24.69567L57.543976 29.504066L56.05104 29.504066ZM73.46547 28.16682L73.67875 29.489841Q73.05313 29.617876 72.55549 29.617876Q71.74504 29.617876 71.29005 29.361807Q70.84927 29.105738 70.66444 28.693184Q70.4796 28.266403 70.4796 26.929155L70.4796 21.850462L69.38477 21.850462L69.38477 20.698154L70.4796 20.698154L70.4796 18.521572L71.95831 17.625332L71.95831 20.698154L73.46547 20.698154L73.46547 21.850462L71.95831 21.850462L71.95831 27.014511Q71.95831 27.640457 72.0294 27.825396Q72.114716 28.010334 72.28534 28.124142Q72.47018 28.223724 72.811424 28.223724Q73.05313 28.223724 73.46547 28.16682ZM74.911934 29.504066L74.911934 20.698154L76.24847 20.698154L76.24847 22.0354Q76.76033 21.096483 77.18688 20.797735Q77.627655 20.49899 78.15374 20.49899Q78.90732 20.49899 79.68933 20.982674L79.17747 22.3626Q78.62295 22.0354 78.08264 22.0354Q77.585 22.0354 77.2011 22.334148Q76.8172 22.632895 76.64658 23.145031Q76.39065 23.941689 76.39065 24.894833L76.39065 29.504066L74.911934 29.504066ZM80.57957 19.06216L80.57957 17.34081L82.0725 17.34081L82.0725 19.06216L80.57957 19.06216ZM80.57957 29.504066L80.57957 20.698154L82.0725 20.698154L82.0725 29.504066L80.57957 29.504066ZM84.0669 30.229595L85.51718 30.442986Q85.616714 31.125835 86.029045 31.424582Q86.583565 31.837135 87.55042 31.837135Q88.58836 31.837135 89.14288 31.424582Q89.711624 31.012026 89.91068 30.272272Q90.02443 29.81704 90.01021 28.351759Q89.04336 29.504066 87.57886 29.504066Q85.758896 29.504066 84.7636 28.195272Q83.76832 26.886477 83.76832 25.05132Q83.76832 23.785202 84.223305 22.71825Q84.69251 21.651299 85.54562 21.082256Q86.41295 20.49899 87.59308 20.49899Q89.14288 20.49899 90.1524 21.75088L90.1524 20.698154L91.531586 20.698154L91.531586 28.30908Q91.531586 30.371855 91.105034 31.225416Q90.692696 32.07898 89.782715 32.57689Q88.886955 33.074802 87.55042 33.074802Q85.98639 33.074802 85.00532 32.3635Q84.03847 31.666424 84.0669 30.229595ZM85.30391 24.937511Q85.30391 26.673086 85.98639 27.469746Q86.6831 28.266403 87.72104 28.266403Q88.744774 28.266403 89.441475 27.48397Q90.138176 26.687313 90.138176 24.994415Q90.138176 23.372648 89.41304 22.561764Q88.70212 21.736654 87.692604 21.736654Q86.69731 21.736654 86.00061 22.547539Q85.30391 23.344196 85.30391 24.937511ZM93.5086 30.229595L94.958885 30.442986Q95.05841 31.125835 95.47075 31.424582Q96.02527 31.837135 96.99212 31.837135Q98.03007 31.837135 98.58459 31.424582Q99.15332 31.012026 99.35238 30.272272Q99.46613 29.81704 99.45191 28.351759Q98.485054 29.504066 97.02055 29.504066Q95.2006 29.504066 94.20531 28.195272Q93.210014 26.886477 93.210014 25.05132Q93.210014 23.785202 93.665 22.71825Q94.13422 21.651299 94.98732 21.082256Q95.854645 20.49899 97.034775 20.49899Q98.58459 20.49899 99.59409 21.75088L99.59409 20.698154L100.97328 20.698154L100.97328 28.30908Q100.97328 30.371855 100.54673 31.225416Q100.1344 32.07898 99.22442 32.57689Q98.32865 33.074802 96.99212 33.074802Q95.42809 33.074802 94.44702 32.3635Q93.48016 31.666424 93.5086 30.229595ZM94.745605 24.937511Q94.745605 26.673086 95.42809 27.469746Q96.124794 28.266403 97.16274 28.266403Q98.18647 28.266403 98.88317 27.48397Q99.57988 26.687313 99.57988 24.994415Q99.57988 23.372648 98.85474 22.561764Q98.143814 21.736654 97.13431 21.736654Q96.139015 21.736654 95.44231 22.547539Q94.745605 23.344196 94.745605 24.937511ZM109.26329 26.673086L110.79888 26.858025Q110.4292 28.209497 109.44813 28.963478Q108.46706 29.703232 106.931465 29.703232Q104.99776 29.703232 103.86028 28.52247Q102.73702 27.327484 102.73702 25.179354Q102.73702 22.945868 103.8745 21.722427Q105.02619 20.49899 106.84615 20.49899Q108.609245 20.49899 109.71828 21.708202Q110.84154 22.903189 110.84154 25.079771Q110.84154 25.222033 110.84154 25.4781L104.27261 25.4781Q104.357925 26.929155 105.09729 27.711588Q105.83665 28.479794 106.931465 28.479794Q107.756134 28.479794 108.33909 28.053013Q108.92205 27.612005 109.26329 26.673086ZM104.357925 24.254662L109.27751 24.254662Q109.17798 23.145031 108.70877 22.590216Q107.99785 21.722427 106.860374 21.722427Q105.83665 21.722427 105.125725 22.419504Q104.429016 23.102354 104.357925 24.254662ZM112.66215 29.504066L112.66215 20.698154L113.99869 20.698154L113.99869 22.0354Q114.51055 21.096483 114.9371 20.797735Q115.37788 20.49899 115.90395 20.49899Q116.65753 20.49899 117.439545 20.982674L116.92768 22.3626Q116.37316 22.0354 115.83286 22.0354Q115.33522 22.0354 114.951324 22.334148Q114.56742 22.632895 114.396805 23.145031Q114.14087 23.941689 114.14087 24.894833L114.14087 29.504066L112.66215 29.504066Z" fill-rule="nonzero"/><path fill="#000000" fill-opacity="0.0" clip-path="url(#id_0)" d="M72.38954 45.49443L72.38954 91.92103" fill-rule="evenodd"/><path stroke="#000000" stroke-width="1.8204463523022936" stroke-linejoin="round" stroke-linecap="butt" clip-path="url(#id_0)" d="M72.389534 45.49444L72.389534 80.99544" fill-rule="evenodd"/><path fill="#000000" stroke="#000000" stroke-width="1.8204463523022936" stroke-linecap="butt" clip-path="url(#id_0)" d="M69.383446 80.99544L72.389534 89.25901L75.39562 80.99544Z" fill-rule="evenodd"/><path fill="#000000" fill-opacity="0.0" clip-path="url(#id_0)" d="M143.87006 133.7238L212.54134 133.7238" fill-rule="evenodd"/><path stroke="#000000" stroke-width="1.8204463523022936" stroke-linejoin="round" stroke-linecap="butt" clip-path="url(#id_0)" d="M143.87006 133.7238L201.62157 133.7238" fill-rule="evenodd"/><path fill="#000000" stroke="#000000" stroke-width="1.8204463523022936" stroke-linecap="butt" clip-path="url(#id_0)" d="M201.62157 136.73149L209.88074 133.7238L201.62157 130.71611Z" fill-rule="evenodd"/></svg>